<svg xmlns="http://www.w3.org/2000/svg" viewBox="0 0 32 32" width="32" height="32">
  <defs>
    <linearGradient id="g" x1="2" y1="16" x2="30" y2="16" gradientUnits="userSpaceOnUse">
      <stop offset="0%" stop-color="#00A86B"/>
      <stop offset="100%" stop-color="#14B8A6"/>
    </linearGradient>
    <clipPath id="c"><circle cx="16" cy="16" r="14"/></clipPath>
  </defs>
  <circle cx="16" cy="16" r="15" fill="#0f1a14"/>
  <circle cx="16" cy="16" r="14.5" stroke="#00A86B" stroke-opacity="0.3" stroke-width="1" fill="none"/>
  <g clip-path="url(#c)" stroke="url(#g)" stroke-width="1.6" stroke-linecap="round" fill="none">
    <path d="M3 10 C7 9, 12 8, 16 10 C20 12, 24 9, 29 10"/>
    <path d="M3 14 C7 13, 12 15, 16 14 C20 13, 24 15, 29 14"/>
    <path d="M3 18 C7 19, 12 17, 16 18.5 C19 19.5, 23 18.5, 27 18.5"/>
    <path d="M3 22 C8 23, 13 21, 16 22 C19 22.8, 22 22, 26 22" stroke-opacity="0.6"/>
  </g>
  <circle cx="16" cy="16" r="2.5" fill="url(#g)"/>
</svg>
